PathFileType	4	(X/Y/Z)	E:\Qualisys_Data\Carbon_Farble_Plate\Data\Amateur_Runner\S14\T1\S14T1V24_c3d.trc
DataRate	CameraRate	NumFrames	NumMarkers	Units	OrigDataRate	OrigDataStartFrame	OrigNumFrames
200.000000	200.000000	4	39	mm	200.000000	117	314
Frame#	Time	LSHO			RSHO			LICST			RICST			LASIS			LHEEL			RASIS			LTROC			RTROC			SACR			LTH1			LSK4			LTH2			LTH3			RHM5			LSK2			LTH4			RTH1			LTOE			RTH2			RTH3			RTH4			LLEP			RLEP			LSK1			LSK3			RSK1			LHM5			RSK2			LFT1			RSK3			RSK4			LLME			RLME			RTOE			RHEEL			RFT1			RFT2			LFT2			
		X1	Y1	Z1	X2	Y2	Z2	X3	Y3	Z3	X4	Y4	Z4	X5	Y5	Z5	X6	Y6	Z6	X7	Y7	Z7	X8	Y8	Z8	X9	Y9	Z9	X10	Y10	Z10	X11	Y11	Z11	X12	Y12	Z12	X13	Y13	Z13	X14	Y14	Z14	X15	Y15	Z15	X16	Y16	Z16	X17	Y17	Z17	X18	Y18	Z18	X19	Y19	Z19	X20	Y20	Z20	X21	Y21	Z21	X22	Y22	Z22	X23	Y23	Z23	X24	Y24	Z24	X25	Y25	Z25	X26	Y26	Z26	X27	Y27	Z27	X28	Y28	Z28	X29	Y29	Z29	X30	Y30	Z30	X31	Y31	Z31	X32	Y32	Z32	X33	Y33	Z33	X34	Y34	Z34	X35	Y35	Z35	X36	Y36	Z36	X37	Y37	Z37	X38	Y38	Z38	X39	Y39	Z39	

118	0.585	-433.9606628417969	1373.968017578125	-550.2828979492188	-391.4476928710938	1393.523071289062	-247.1997222900391	-485.9705200195312	948.4335327148438	-507.5515747070312	-439.3056945800781	933.9378662109376	-228.4562225341797	-443.5001525878906	895.4411010742188	-484.8463745117188	-745.5477294921875	104.820442199707	-355.9075317382812	-414.7274169921875	890.6923828125	-253.3985290527344	-595.1522216796875	836.0712280273438	-508.1381225585938	-557.8295288085938	843.1727294921875	-194.0009155273438	-596.7454223632812	960.8211059570312	-355.3377990722656	-483.0411376953125	606.3209838867188	-512.6204833984375	-621.306396484375	281.3469848632812	-449.1560668945312	-556.1306762695312	598.3250732421875	-489.2478332519531	-460.1280212402344	512.5067749023438	-483.7371215820312	-776.8594970703125	261.3653564453125	-197.2973022460938	-572.227783203125	363.5751342773438	-474.3733825683594	-536.8577270507812	504.7588806152344	-465.0260925292969	-355.5491333007812	637.4462890625	-195.2912139892578	-496.4699096679688	60.68179702758789	-406.3625183105469	-430.3717346191406	618.2716674804688	-176.7540588378906	-329.5545349121094	540.7744140625	-214.5114135742188	-408.2554321289062	518.9124145507812	-189.2418823242188	-478.794677734375	440.3344421386719	-470.1762084960938	-379.7580871582031	460.2987060546875	-197.0678253173828	-499.5599365234375	325.0496215820312	-462.2013244628906	-552.346923828125	240.1451721191406	-440.4236145019531	-466.7589721679688	401.8597106933594	-201.2662811279297	-569.8106689453125	58.97723388671875	-461.3831481933594	-488.8800964355469	484.5372619628906	-199.9717102050781	-736.5112915039062	76.38758087158203	-330.6555480957031	-567.7230224609375	382.7806091308594	-217.2514038085938	-580.5184326171875	461.037109375	-215.1213073730469	-682.0733642578125	119.9032135009766	-418.9209289550781	-738.88916015625	397.4309692382812	-235.92919921875	-759.579833984375	185.4613647460938	-252.5562133789062	-775.893310546875	442.5215759277344	-294.2645568847656	-804.4525146484375	421.5260314941406	-321.2611083984375	-798.0892333984375	441.8248596191406	-265.3681640625	-752.83447265625	77.69674682617188	-383.4826049804688
119	0.59	-411.7690734863281	1377.832641601562	-549.7329711914062	-374.7777709960938	1396.798095703125	-246.5965270996094	-465.0207214355469	950.85205078125	-507.5200500488281	-417.1325988769531	937.6265869140624	-230.5555572509766	-423.5103454589844	897.6331787109375	-485.2270202636719	-744.9920043945312	106.842041015625	-355.712890625	-395.893798828125	893.5446166992188	-253.5809936523438	-577.2506103515625	838.577880859375	-508.2808227539062	-539.0342407226562	846.1256713867188	-195.3292236328125	-576.9594116210938	963.8038330078124	-356.31005859375	-471.47705078125	607.3211669921875	-512.6646728515625	-618.36962890625	283.4800415039062	-449.4766540527344	-545.3319702148438	601.4222412109375	-490.0242614746094	-452.0933227539062	512.5436401367188	-483.6356811523438	-738.771240234375	252.6755523681641	-196.5611877441406	-567.8340454101562	365.0227355957031	-474.3525085449219	-528.9830932617188	507.3815612792969	-465.6170349121094	-332.2798156738281	644.8610229492188	-195.4340209960938	-496.4740295410156	60.63942718505859	-406.3363342285156	-406.4803466796875	623.5345458984375	-177.5963439941406	-303.1866455078125	549.5372314453125	-215.2596588134766	-381.1674499511719	525.1583251953125	-191.1485290527344	-473.1892700195312	441.040283203125	-469.8301696777344	-350.5719299316406	467.435302734375	-198.0462188720703	-496.2605590820312	325.8837585449219	-462.1290588378906	-549.8335571289062	241.531005859375	-440.897216796875	-435.7557373046875	407.3077697753906	-198.3818511962891	-569.6115112304688	59.00400924682617	-461.8258056640625	-460.8442077636719	487.7849426269531	-200.8372802734375	-734.6046142578125	78.73310852050781	-329.5193481445312	-535.8602294921875	383.2281188964844	-217.04248046875	-551.7296752929688	460.8741149902344	-215.552978515625	-681.1627807617188	122.6332626342773	-419.3987121582031	-707.2640991210938	391.1301574707031	-235.0751190185547	-718.6688842773438	179.0224456787109	-253.1419982910156	-747.0765380859375	433.9021606445312	-294.1954956054688	-774.4800415039062	411.9418029785156	-320.8027038574219	-766.7137451171875	430.490966796875	-266.3148498535156	-751.6590576171875	80.0467300415039	-383.5496520996094
120	0.595	-389.3610534667969	1381.845092773438	-549.27978515625	-357.4609985351562	1400.31591796875	-246.0936737060547	-444.7557067871094	953.206787109375	-507.7071533203125	-395.1872863769531	940.2988891601562	-235.056640625	-403.4321594238281	900.0631713867188	-485.3877258300781	-744.1817626953125	109.5640563964844	-355.3275451660156	-376.0700988769531	896.1749267578125	-254.2499084472656	-558.7808227539062	842.2138671875	-508.4789733886719	-519.5950927734375	849.5596313476562	-195.9091949462891	-557.2485961914062	967.2901611328124	-357.4096984863281	-459.8587341308594	608.2101440429688	-512.3377685546875	-615.3407592773438	286.9916381835938	-450.8624572753906	-534.0677490234375	605.5281982421875	-490.6868591308594	-443.9656677246094	513.2281494140625	-483.1588134765625	-700.6005859375	244.3413848876953	-196.3520202636719	-563.7003173828125	367.8138732910156	-474.4012145996094	-521.623046875	510.4392700195312	-466.06884765625	-309.4368896484375	652.6764526367188	-195.9247131347656	-496.5595703125	60.69594192504883	-406.1778259277344	-383.3663940429688	628.6943359375	-179.0293273925781	-277.5110473632812	558.2816772460938	-215.9781951904297	-354.7044067382812	531.3080444335938	-192.3473968505859	-467.9972839355469	442.0952758789062	-470.0252990722656	-321.7749633789062	475.4811401367188	-198.8698120117188	-492.7023315429688	327.5992126464844	-462.1499938964844	-547.5592651367188	243.5698852539062	-441.4056396484375	-404.9324645996094	411.2094116210938	-199.0444488525391	-569.4112548828125	59.0726203918457	-461.8922424316406	-433.0021362304688	490.8553466796875	-202.0631408691406	-734.586181640625	82.19483947753906	-330.5128173828125	-504.4663391113281	383.5482177734375	-217.1907501220703	-522.9820556640625	460.2221984863281	-215.9446716308594	-680.0203857421875	125.1351470947266	-419.7223815917969	-676.339599609375	383.902099609375	-235.2922058105469	-676.8786010742188	171.5745239257812	-252.8803100585938	-717.8851928710938	425.0987548828125	-293.5111083984375	-744.42138671875	401.4996337890625	-320.5730895996094	-738.1319580078125	420.0942993164062	-265.0430297851562	-750.2586059570312	83.46631622314453	-383.520263671875
121	0.6	-367.2200927734375	1386.111572265625	-548.634033203125	-340.0048522949219	1404.235595703125	-245.6982727050781	-424.0903625488281	956.02880859375	-508.1366577148438	-377.1521606445312	943.334716796875	-233.7885284423828	-383.4457702636719	902.2554931640624	-485.8513488769531	-742.5234375	111.9306945800781	-355.2520751953125	-356.7781677246094	899.0173950195312	-254.4669799804688	-539.821533203125	845.217529296875	-508.1697387695312	-499.8475341796875	853.4511108398438	-196.34912109375	-537.33203125	970.3257446289062	-358.62158203125	-448.6812744140625	609.5645141601562	-512.5435180664062	-612.3054809570312	290.3445434570312	-449.8736267089844	-522.759765625	609.885986328125	-490.6935119628906	-436.4164123535156	513.967529296875	-482.9479675292969	-662.033203125	235.9545135498047	-195.7168731689453	-561.0925903320312	370.9658508300781	-474.2070922851562	-514.1054077148438	514.858154296875	-466.3985595703125	-287.1779479980469	660.3845825195312	-196.3067016601562	-496.4648742675781	60.64709854125977	-406.1454772949219	-360.3497619628906	634.4943237304688	-179.6620635986328	-252.385498046875	567.2178955078125	-216.6887359619141	-328.7957153320312	537.9655151367188	-193.4186401367188	-463.2826232910156	444.0885620117188	-469.702392578125	-293.5873413085938	483.1960754394531	-199.8671112060547	-489.1160583496094	329.9456481933594	-462.8233337402344	-544.7255249023438	246.5131988525391	-442.1467895507812	-374.4905395507812	415.2939453125	-200.0166320800781	-568.9637451171875	59.32868576049805	-461.8403625488281	-405.7808532714844	493.9801635742188	-202.8560333251953	-733.7073974609375	85.50704956054688	-331.0682373046875	-472.9362182617188	383.3233642578125	-217.7796783447266	-494.59033203125	459.5206298828125	-216.3078765869141	-678.6475830078125	128.4143371582031	-420.2060852050781	-644.6519775390625	375.8494262695312	-235.1431579589844	-634.7702026367188	164.0506134033203	-252.6710968017578	-688.6466674804688	414.8517150878906	-292.7524719238281	-714.4633178710938	390.7789916992188	-320.3388061523438	-708.7048950195312	409.3038635253906	-264.4580383300781	-747.8531494140625	87.11640167236328	-384.2685241699219
